<?xml version="1.0" encoding="utf-8"?>
<!-- Generator: Adobe Illustrator 26.0.1, SVG Export Plug-In . SVG Version: 6.00 Build 0)  -->
<svg version="1.1" id="logo-SA_P" xmlns="http://www.w3.org/2000/svg" xmlns:xlink="http://www.w3.org/1999/xlink" x="0px" y="0px"
	 viewBox="0 0 312.18 20" style="enable-background:new 0 0 312.18 20;" xml:space="preserve">
<style type="text/css">
	.st0{fill:#0F0F0F;}
</style>
<g id="Group_66" transform="translate(0 0)">
	<g id="Group_61" transform="translate(0 0)">
		<path id="Path_14" class="st0" d="M9.92,4.79C9.5,2.88,7.79,1.55,5.84,1.6C4.08,1.45,2.54,2.76,2.4,4.52
			C2.39,4.63,2.39,4.73,2.39,4.84c0,2.05,1.97,2.91,2.91,3.3c0.74,0.31,1.99,0.77,2.74,1.08c2.76,1.17,4.25,2.34,4.25,5.47
			c0,1.6-0.72,3.12-1.97,4.13c-1.25,0.83-2.74,1.24-4.25,1.17C2.96,19.99,1.11,18,0,15.58l1.71-0.83c0.38,1.24,1.19,2.3,2.28,2.99
			c0.84,0.45,1.78,0.67,2.74,0.63c1.91,0.12,3.55-1.32,3.67-3.23c0.01-0.12,0.01-0.24,0-0.36c0.04-1.38-0.76-2.66-2.02-3.22
			l-0.94-0.46c-1.17-0.6-2.42-1.03-3.62-1.57C2.65,9.09,1.69,8.23,1.11,7.12c-0.32-0.71-0.5-1.47-0.51-2.25
			c0-2.79,1.79-4.87,5.44-4.87c2.39,0,4.13,0.91,5.64,3.9L9.92,4.79z"/>
		<path id="Path_15" class="st0" d="M15.3,19.32l7.35-19.2h1.99l7.29,19.2H29.8l-1.71-4.61h-8.97l-1.71,4.61H15.3z M27.55,13.11
			L23.79,2.85c-0.02-0.06-0.08-0.09-0.14-0.09c-0.09,0-0.11,0.09-0.14,0.14l-3.82,10.2L27.55,13.11z"/>
	</g>
	<g id="Group_62" transform="translate(54.166 0.399)">
		<path id="Path_16" class="st0" d="M0,0h5.5c2.22,0,3.82,0.31,4.96,1.25c1.25,1.05,1.94,2.62,1.88,4.24
			c0.03,1.59-0.6,3.11-1.74,4.22C9.2,11,7.44,11,5.87,11H2v7.92H0L0,0z M1.99,1.57v7.77h3.3c3.56,0,5.07-0.97,5.07-3.7
			c0-3.3-2.14-4.07-5.01-4.07L1.99,1.57z"/>
	</g>
	<g id="Group_63" transform="translate(71.469 9.87)">
		<path id="Path_17" class="st0" d="M3.15,8.52L1.13,0.9C1.12,0.86,1.09,0.83,1.05,0.83c-0.06,0.01-0.1,0.06-0.1,0.11v7.58H0V0.17
			h1.74l1.77,6.48c0.02,0.07,0.06,0.1,0.1,0.1c0.07,0,0.13-0.05,0.14-0.11l1.73-6.47h1.76v8.35H6.3V0.99c0-0.05-0.03-0.09-0.08-0.1
			c-0.05,0-0.1,0.03-0.11,0.08l-2,7.55L3.15,8.52z"/>
		<path id="Path_18" class="st0" d="M9.58,7.78h0.71V0.93H9.58V0.17h2.63v0.76h-0.74v6.85h0.74v0.74H9.58V7.78z"/>
		<path id="Path_19" class="st0" d="M19.61,0.17v1.06h-2.42v7.29h-1.2V1.23h-2.43V0.17H19.61z"/>
		<path id="Path_20" class="st0" d="M28.27,2.35c-0.39-0.77-0.75-1.34-1.72-1.34c-0.65-0.05-1.22,0.43-1.27,1.07
			c0,0.01,0,0.02,0,0.03c0.03,0.55,0.39,1.02,0.91,1.19l1.66,0.75c0.51,0.23,0.95,0.61,1.25,1.09c0.2,0.34,0.3,0.73,0.28,1.12
			c0.03,0.72-0.27,1.42-0.82,1.89c-0.5,0.43-1.15,0.64-1.81,0.59c-0.69,0-1.36-0.24-1.91-0.66c-0.41-0.34-0.73-0.77-0.93-1.26
			l1-0.63c0.24,0.87,1.02,1.48,1.92,1.5c0.75,0.06,1.41-0.5,1.46-1.25c0-0.03,0-0.06,0-0.09c0-0.39-0.15-0.88-1.02-1.27l-1.48-0.67
			c-0.56-0.23-1.04-0.62-1.38-1.11c-0.18-0.36-0.27-0.76-0.25-1.16c0.04-1.23,1.07-2.19,2.3-2.15c0.03,0,0.05,0,0.08,0
			c1.19-0.04,2.27,0.67,2.7,1.77L28.27,2.35z"/>
		<path id="Path_21" class="st0" d="M35.07,2.59c-0.09-0.81-0.48-1.54-1.39-1.54c-0.64,0.03-1.2,0.47-1.37,1.09
			c-0.21,0.65-0.33,1.32-0.34,2c0,1.83,0.33,3.62,1.71,3.62c0.45-0.01,0.87-0.25,1.1-0.64c0.18-0.35,0.28-0.74,0.3-1.14l1.14,0.2
			c-0.03,0.7-0.31,1.36-0.79,1.88c-0.49,0.49-1.16,0.75-1.85,0.72c-0.68,0-2.74-0.35-2.74-4.37c0-1.92,0.49-4.36,2.84-4.36
			c0.65-0.01,1.27,0.23,1.74,0.68c0.42,0.45,0.68,1.03,0.74,1.64L35.07,2.59z"/>
		<path id="Path_22" class="st0" d="M38.54,0.17h1.16v3.5h2.98v-3.5h1.16v8.35h-1.16V4.68H39.7v3.84h-1.16V0.17z"/>
		<path id="Path_23" class="st0" d="M51.26,2.07c0.22,0.75,0.33,1.52,0.32,2.3c0,1.99-0.56,4.4-2.81,4.4
			c-2.05,0-2.82-2.06-2.82-4.29c-0.06-1.11,0.18-2.21,0.68-3.2c0.41-0.79,1.25-1.28,2.14-1.24C49.97,0.08,50.99,0.91,51.26,2.07z
			 M48.79,1.05c-0.72,0-1.16,0.5-1.4,1.29c-0.19,0.69-0.27,1.4-0.25,2.11c0,1.06,0.15,3.29,1.6,3.29c1.18,0,1.64-1.22,1.64-3.33
			C50.39,3.3,50.28,1.05,48.79,1.05L48.79,1.05z"/>
		<path id="Path_24" class="st0" d="M58.21,2.07c0.22,0.75,0.33,1.52,0.32,2.3c0,1.99-0.56,4.4-2.81,4.4
			c-2.05,0-2.82-2.06-2.82-4.29c-0.06-1.11,0.18-2.21,0.68-3.2c0.41-0.79,1.25-1.28,2.14-1.24C56.92,0.08,57.94,0.91,58.21,2.07z
			 M55.74,1.05c-0.72,0-1.16,0.5-1.4,1.29c-0.19,0.69-0.27,1.4-0.25,2.11c0,1.06,0.15,3.29,1.6,3.29c1.18,0,1.64-1.22,1.64-3.33
			C57.34,3.3,57.23,1.05,55.74,1.05L55.74,1.05z"/>
		<path id="Path_25" class="st0" d="M60.55,0.17h1.15v7.29h3.86v1.06h-5L60.55,0.17z"/>
		<path id="Path_26" class="st0" d="M75.24,2.07c0.22,0.75,0.33,1.52,0.32,2.3c0,1.99-0.56,4.4-2.81,4.4
			c-2.05,0-2.82-2.06-2.82-4.29c-0.06-1.11,0.18-2.21,0.68-3.2c0.41-0.79,1.25-1.28,2.14-1.24C73.94,0.08,74.96,0.91,75.24,2.07z
			 M72.77,1.05c-0.72,0-1.16,0.5-1.4,1.29c-0.19,0.69-0.27,1.4-0.25,2.11c0,1.06,0.15,3.29,1.6,3.29c1.18,0,1.64-1.22,1.64-3.33
			C74.36,3.3,74.26,1.05,72.77,1.05L72.77,1.05z"/>
		<path id="Path_27" class="st0" d="M77.42,0.17h5.14v1.06h-3.95v2.52h2.84v1.06h-2.84v3.71h-1.19L77.42,0.17z"/>
		<path id="Path_28" class="st0" d="M91.04,6.78h-3.3l-0.52,1.74H86l2.7-8.35H90l2.82,8.35h-1.22L91.04,6.78z M90.71,5.81
			l-1.32-4.25c-0.01-0.02-0.02-0.05-0.06-0.05s-0.05,0.03-0.06,0.06l-1.24,4.24L90.71,5.81z"/>
		<path id="Path_29" class="st0" d="M94.56,0.17h2.57c2.33,0,2.83,1.41,2.83,2.26c0.06,1.09-0.71,2.05-1.79,2.23l2.18,3.86H99
			l-1.98-3.71h-1.29v3.71h-1.17V0.17z M95.72,1.15v2.76c0.63,0.03,1.26,0,1.89-0.08c0.67-0.05,1.18-0.61,1.17-1.27
			c0-0.98-0.66-1.41-1.91-1.41H95.72z"/>
		<path id="Path_30" class="st0" d="M105.73,2.59c-0.09-0.81-0.48-1.54-1.39-1.54c-0.64,0.03-1.2,0.47-1.36,1.09
			c-0.21,0.65-0.33,1.32-0.34,2c0,1.83,0.33,3.62,1.71,3.62c0.45-0.01,0.87-0.25,1.1-0.64c0.18-0.35,0.28-0.74,0.3-1.14l1.14,0.2
			c-0.03,0.7-0.31,1.36-0.78,1.88c-0.49,0.49-1.16,0.75-1.85,0.72c-0.68,0-2.74-0.35-2.74-4.37c0-1.92,0.49-4.36,2.84-4.36
			c0.65-0.01,1.27,0.23,1.74,0.68c0.42,0.45,0.68,1.03,0.74,1.64L105.73,2.59z"/>
		<path id="Path_31" class="st0" d="M109.19,0.17h1.16v3.5h2.98v-3.5h1.16v8.35h-1.16V4.68h-2.98v3.84h-1.16L109.19,0.17z"/>
		<path id="Path_32" class="st0" d="M116.84,7.78h0.7V0.93h-0.7V0.17h2.63v0.76h-0.74v6.85h0.74v0.74h-2.63V7.78z"/>
		<path id="Path_33" class="st0" d="M126.87,0.17v1.06h-2.42v7.29h-1.19V1.23h-2.43V0.17H126.87z"/>
		<path id="Path_34" class="st0" d="M128.68,0.17h5.19V1.2h-3.99v2.42h2.95v1.06h-2.92v2.79h4.18v1.06h-5.4L128.68,0.17z"/>
		<path id="Path_35" class="st0" d="M139.85,2.59c-0.09-0.81-0.48-1.54-1.39-1.54c-0.64,0.03-1.19,0.47-1.36,1.09
			c-0.21,0.65-0.33,1.32-0.34,2c0,1.83,0.33,3.62,1.71,3.62c0.45-0.01,0.87-0.25,1.1-0.64c0.18-0.35,0.28-0.74,0.3-1.14l1.14,0.2
			c-0.03,0.7-0.31,1.36-0.79,1.88c-0.49,0.49-1.16,0.75-1.85,0.72c-0.68,0-2.74-0.35-2.74-4.37c0-1.92,0.49-4.36,2.84-4.36
			c0.65-0.01,1.27,0.23,1.74,0.68c0.42,0.45,0.68,1.03,0.74,1.64L139.85,2.59z"/>
		<path id="Path_36" class="st0" d="M148.36,0.17v1.06h-2.42v7.29h-1.19V1.23h-2.43V0.17H148.36z"/>
		<path id="Path_37" class="st0" d="M151.42,0.17v5.56c0,0.9,0.2,1.98,1.57,1.98c0.52,0.01,1.01-0.27,1.27-0.72
			c0.19-0.49,0.28-1.02,0.25-1.55V0.17h1.05v5.61c0.05,0.81-0.21,1.62-0.74,2.24c-0.56,0.54-1.32,0.81-2.09,0.75
			c-0.76,0-1.48-0.36-1.93-0.98c-0.4-0.63-0.59-1.37-0.53-2.11V0.17L151.42,0.17z"/>
		<path id="Path_38" class="st0" d="M157.94,0.17h2.57c2.33,0,2.83,1.41,2.83,2.26c0.06,1.09-0.71,2.05-1.79,2.23l2.18,3.86h-1.36
			l-1.98-3.71h-1.29v3.71h-1.17V0.17z M159.1,1.15v2.76c0.63,0.03,1.26,0,1.89-0.08c0.67-0.05,1.18-0.61,1.17-1.27
			c0-0.98-0.66-1.41-1.91-1.41H159.1z"/>
		<path id="Path_39" class="st0" d="M165.52,0.17h5.19V1.2h-3.99v2.42h2.94v1.06h-2.92v2.79h4.18v1.06h-5.4V0.17z"/>
	</g>
	<g id="Group_64" transform="translate(246.309 11.308)">
		<path id="Path_40" class="st0" d="M2.4,0h0.93v2.41h2.4v0.93h-2.4v2.41H2.4V3.35H0V2.41h2.4V0z"/>
	</g>
	<g id="Group_65" transform="translate(255.976 9.882)">
		<path id="Path_41" class="st0" d="M0,0.16h1.81C2.7,0.08,3.59,0.28,4.37,0.74c0.66,0.43,1.05,1.18,1.02,1.97
			C5.42,3.43,5.1,4.12,4.54,4.57C3.84,5.04,3.01,5.26,2.17,5.19H1.16v3.32H0V0.16z M1.16,1.14v3.05C1.31,4.2,1.46,4.2,1.61,4.2
			c1.4,0,2.52-0.16,2.52-1.51c0-1.55-1.68-1.55-2.26-1.55H1.16z"/>
		<path id="Path_42" class="st0" d="M7.56,0.16h1.15v7.29h3.85v1.06h-5V0.16z"/>
		<path id="Path_43" class="st0" d="M18.56,6.77h-3.3l-0.52,1.74h-1.22l2.7-8.35h1.31l2.82,8.35h-1.22L18.56,6.77z M18.23,5.8
			l-1.32-4.25C16.9,1.52,16.89,1.5,16.86,1.5s-0.05,0.03-0.06,0.06L15.56,5.8L18.23,5.8z"/>
		<path id="Path_44" class="st0" d="M22.04,0.16h1.48l2.42,5.37c0,0.01,0.33,0.82,0.34,0.83c0.06,0.15,0.3,0.81,0.34,0.94
			c0.02,0,0.05,0.01,0.07,0.01c0.05-0.05,0.05-0.06,0.05-0.17S26.7,6.45,26.7,6.34c-0.02-0.52-0.02-0.95-0.02-1.24V0.16h0.95v8.35
			h-1.46l-2.43-5.43c-0.31-0.69-0.61-1.59-0.67-1.77c-0.01-0.01-0.05-0.01-0.06-0.02c-0.07,0.06-0.07,0.07-0.07,0.12
			C22.94,1.65,23,2.9,23,2.96v5.55h-0.95L22.04,0.16z"/>
		<path id="Path_45" class="st0" d="M30.25,0.16h1.48l2.42,5.37c0,0.01,0.33,0.82,0.34,0.83c0.06,0.15,0.3,0.81,0.34,0.94
			c0.02,0,0.05,0.01,0.07,0.01c0.05-0.05,0.05-0.06,0.05-0.17s-0.05-0.69-0.05-0.81c-0.02-0.52-0.02-0.95-0.02-1.24V0.16h0.95v8.35
			h-1.46l-2.43-5.43c-0.31-0.69-0.61-1.59-0.67-1.77c-0.01-0.01-0.05-0.01-0.06-0.02c-0.07,0.06-0.07,0.07-0.07,0.12
			c0,0.24,0.06,1.49,0.06,1.55v5.55h-0.96L30.25,0.16z"/>
		<path id="Path_46" class="st0" d="M38.05,7.77h0.71V0.92h-0.71V0.16h2.63v0.76h-0.74v6.85h0.74v0.74h-2.63V7.77z"/>
		<path id="Path_47" class="st0" d="M42.89,0.16h1.48l2.42,5.37c0,0.01,0.33,0.82,0.34,0.83c0.06,0.15,0.29,0.81,0.34,0.94
			c0.02,0,0.04,0.01,0.07,0.01c0.05-0.05,0.05-0.06,0.05-0.17s-0.05-0.69-0.05-0.81c-0.02-0.52-0.02-0.95-0.02-1.24V0.16h0.96v8.35
			h-1.46l-2.43-5.43c-0.31-0.69-0.61-1.59-0.67-1.77C43.9,1.3,43.87,1.3,43.86,1.29c-0.07,0.06-0.07,0.07-0.07,0.12
			c0,0.24,0.06,1.49,0.06,1.55v5.55h-0.96L42.89,0.16z"/>
		<path id="Path_48" class="st0" d="M54.81,2.24c-0.12-0.38-0.42-1.25-1.36-1.25c-0.3,0-1.15,0.11-1.55,1.48
			c-0.15,0.62-0.22,1.25-0.22,1.89c-0.04,0.84,0.12,1.68,0.44,2.46c0.22,0.55,0.75,0.91,1.34,0.91c0.43,0,0.85-0.18,1.15-0.49
			c0.35-0.42,0.53-0.96,0.49-1.51h-1.61V4.66h2.72v4.02H55.8l-0.26-0.52c-0.1-0.22-0.18-0.3-0.25-0.3c-0.05,0-0.11,0.02-0.15,0.06
			c-0.04,0.05-0.12,0.12-0.18,0.17c-0.45,0.43-1.05,0.67-1.67,0.68c-0.71,0.03-1.39-0.3-1.81-0.88c-0.68-1.03-1.01-2.24-0.97-3.47
			c-0.04-1.06,0.19-2.12,0.67-3.07c0.45-0.81,1.28-1.32,2.2-1.35c1.22-0.03,2.28,0.82,2.51,2.01L54.81,2.24z"/>
	</g>
	<path id="Path_49" class="st0" d="M40.48,11.82h-7l2.53-2.63h4.47V4.06l2.62-2.62V9.2h7v2.63h-7v7h-2.62V11.82z"/>
</g>
</svg>
