<svg height="30" viewBox="0 0 30 30" width="30" xmlns="http://www.w3.org/2000/svg"><g fill="none" fill-rule="evenodd"><path d="m30 15c0 8.284-6.716 15-15 15s-15-6.716-15-15 6.716-15 15-15 15 6.716 15 15" fill="#004a7f"/><path d="m23.9282 10.107c.044.19.072.386.072.588v7.61c0 1.486-1.248 2.695-2.781 2.695h-12.438c-1.534 0-2.781-1.209-2.781-2.695v-7.61c0-.202.027-.398.071-.588.051-.797.618-1.462 1.452-1.802.379-.189.802-.305 1.258-.305h12.438c.455 0 .878.116 1.258.305.833.34 1.4 1.005 1.451 1.802zm-2.709 8.893c.431 0 .781-.312.781-.695v-6.346c-5.717 3.574-6.746 4.199-7.178 4.199-.091 0-.157-.028-.234-.061-.046-.02-.091-.043-.133-.07l-6.455-4.062v6.34c0 .383.35.695.781.695z" fill="#fff"/></g></svg>