<svg height="30" viewBox="0 0 30 30" width="30" xmlns="http://www.w3.org/2000/svg"><g fill="none" fill-rule="evenodd"><path d="m30 15c0 8.284-6.716 15-15 15s-15-6.716-15-15 6.716-15 15-15 15 6.716 15 15" fill="#004a7f"/><path d="m5.9997 24.718v-14.023c0-1.486 1.248-2.695 2.781-2.695h12.438c1.534 0 2.781 1.209 2.781 2.695v7.61c0 1.486-1.247 2.695-2.781 2.695h-11.038zm2.781-14.718c-.431 0-.781.312-.781.695v9.568l1.421-1.263h11.798c.431 0 .781-.312.781-.695v-7.61c0-.383-.35-.695-.781-.695z" fill="#fff"/></g></svg>