<svg height="30" viewBox="0 0 30 30" width="30" xmlns="http://www.w3.org/2000/svg"><g fill="none" fill-rule="evenodd"><path d="m30 15c0 1.75-.3 3.43-.85 4.989-.28.781-.62 1.54-1.01 2.25-2.56 4.63-7.48 7.761-13.14 7.761-5.54 0-10.38-3-12.97-7.471-.44-.74-.81-1.519-1.11-2.34-.59-1.62-.92-3.37-.92-5.189 0-8.28 6.72-15 15-15s15 6.72 15 15" fill="#004a7f"/><path d="m27.4603 18.7501c.66.289 1.23.72 1.69 1.239-.28.78-.62 1.54-1.01 2.25-.3-1.099-1.36-1.899-2.61-1.899-1.49 0-2.7 1.139-2.7 2.55h-2.09c0-2.851-2.34-5.17-5.21-5.17s-5.21 2.319-5.21 5.17h-2.91c0-1.411-1.22-2.55-2.71-2.55-1.36 0-2.49.949-2.67 2.189-.44-.74-.811-1.519-1.11-2.34.48-.62 1.12-1.12 1.85-1.439-.93-.61-1.551-1.66-1.551-2.841 0-1.88 1.561-3.409 3.481-3.409s3.48 1.529 3.48 3.409c0 1.181-.61 2.231-1.55 2.841.879.38 1.6 1.019 2.089 1.809.711-2.049 2.321-3.669 4.361-4.4-1.17-.809-1.94-2.159-1.94-3.68 0-2.469 2.01-4.479 4.47-4.479 2.47 0 4.47 2.01 4.47 4.479 0 1.55-.79 2.92-2 3.72 1.75.66 3.179 1.981 3.97 3.66.43-.469.95-.849 1.55-1.109-.93-.61-1.55-1.66-1.55-2.841 0-1.88 1.56-3.409 3.48-3.409s3.479 1.529 3.479 3.409c0 1.181-.619 2.231-1.549 2.841zm-11.85-3.801c1.37 0 2.47-1.109 2.47-2.47 0-1.37-1.1-2.479-2.47-2.479-1.36 0-2.47 1.109-2.47 2.479 0 1.361 1.11 2.47 2.47 2.47zm9.92 2.38c.82 0 1.479-.64 1.479-1.42 0-.779-.659-1.409-1.479-1.409s-1.48.63-1.48 1.409c0 .78.66 1.42 1.48 1.42zm-20.83 0c.82 0 1.48-.64 1.48-1.42 0-.779-.66-1.409-1.48-1.409-.81 0-1.481.63-1.481 1.409 0 .78.671 1.42 1.481 1.42z" fill="#fff"/></g></svg>