<svg height="30" viewBox="0 0 30 30" width="30" xmlns="http://www.w3.org/2000/svg"><g fill="none"><circle cx="15" cy="15" fill="#004a7f" r="15"/><path d="m15.91 18.32h-2v-1c-.006334-.3361152.027234-.6717948.1-1 .0603608-.2813872.1649955-.5514122.31-.8.1346087-.2466617.295548-.4780119.48-.69.2002565-.232314.4139562-.4526918.64-.66l.78-.74c.2961911-.2524602.5553972-.5453295.77-.87.2159722-.3657812.323486-.785432.31-1.21.0270478-.6055315-.2101206-1.1929795-.65-1.61-.4460556-.415188-1.0414424-.6316923-1.65-.6-.6303757-.02914358-1.242685.21505118-1.68.67-.4210029.4499494-.6812057 1.026615-.74 1.64l-2-.23c.072808-.5704257.2490235-1.1227937.52-1.63.2520321-.46989485.5914386-.8873648 1-1.23.4051261-.34457683.8740065-.60619848 1.38-.77.5376633-.18270639 1.1021552-.27397155 1.67-.27.5604305-.00298882 1.1176455.08481475 1.65.26.4982326.15329746.9606774.40492183 1.36.74.3956674.33757657.7130283.75731199.93 1.23.2285491.526541.3410974 1.0961037.33 1.67.0065069.3984728-.0440044.7958284-.15 1.18-.0870847.3264437-.2254761.6369803-.41.92-.1786796.2805989-.3939015.536175-.64.76-.25.24-.52.49-.82.74s-.52.45-.72.64c-.1773183.1730354-.3318935.3679346-.46.58-.1108916.2039753-.1917268.4229041-.24.65-.0526454.2936299-.076093.5917503-.07.89zm.52 3c.0123891.3746057-.1326798.737278-.4 1-.2551851.281594-.6200757.438497-1 .43-.3754344.0061462-.7369369-.1420698-1-.41-.2699559-.2616966-.4185481-.6241167-.41-1-.0108127-.3728791.1297923-.7342521.3897737-1.0017692s.6171905-.4183875.9902263-.4182308c.3741756-.0099612.735915.1347346 1 .4.2747648.2474632.4311444.6002266.43.97z" fill="#fff"/></g></svg>