<svg height="47" viewBox="0 0 331 47" width="331" xmlns="http://www.w3.org/2000/svg"><g fill="none"><path d="m313.77443 1.88333333c11.234973 0 16.974578 5.00141844 16.974578 13.60141847 0 5.6113475-2.564504 9.5758865-6.960798 11.5276595l7.011641 17.870922h-11.100649l-.170467-.487338-8.11389-22.303989-.118643-.325673 1.440214.000688c4.844895 0 6.760148-2.0485082 6.836304-5.7441841l.002375-.2331209c0-3.964539-2.076027-5.6723404-7.021858-5.6723404l-5.495035-.0000426-2.995-8.23399997z" fill="#000"/><path d="m282.257648 44.8833333 2.706724-8.1120567h14.886981l2.645208 8.1120567h12.30329v-.4879432l-15.563662-42.51205677h-11.872676l-15.563662 42.51205677v.4879432zm14.948498-16.0411347h-9.658083l4.8598-14.6382979z" fill="#000"/><path d="m43.2414618 17.15c-2.919463-8.63333334-10.7436241-14.23333334-19.2684563-14.93333334l-.9342282 10.96666664c4.3208053.35 8.1744966 3.15 9.6926174 7.4666667 1.9852349 5.8333333-1.1677852 12.1333333-6.8899329 14.1166666-5.8389261 1.9833334-12.1449664-1.1666666-14.1302013-6.8833333-1.98523491-5.8333333 1.1677852-12.1333333 6.8899329-14.1166667l3.1530201-6.64999994-6.6563758-3.85c-11.67785238 3.96666667-17.86711413 16.45000004-13.89664433 28.11666664 3.9704698 11.55 16.46577183 17.7333333 28.14362413 13.8833333 11.5610739-3.9666666 17.7503356-16.5666666 13.8966443-28.1166666z" fill="#004a7f"/><g fill="#000"><path d="m65.6629385 10.9666666c-10.0429531 0-16.6993289 7.1166667-16.6993289 17.15 0 10.9666667 6.0724832 17.7333334 18.9181208 17.7333334 5.7221477 0 9.809396-1.2833334 12.0281879-2.45v-7.5833334l-.467114-.2333333c-2.9194631 1.4-5.9557047 2.45-10.6268457 2.45-5.8389262 0-8.8751678-2.1-9.6926174-7.1166667h21.3704698c1.4013422-14-5.0214765-19.95-14.8308725-19.95zm-6.3060403 13.4166667c.7006712-4.4333333 2.9194631-6.4166667 6.4228188-6.4166667s5.138255 2.1 5.3718121 6.4166667z"/><path d="m96.9595828 37.9166666c-1.4013423 0-2.1020134-.8166666-2.1020134-2.45v-33.24999994l-10.3932886.11666667v34.99999997c0 6.3 3.6201342 8.2833333 9.2255033 8.2833333 2.3355705 0 4.3208054-.4666666 5.3718121-.9333333v-6.8833333l-.3503356-.2333334c-.5838926.1166667-.9342282.35-1.7516778.35z"/><path d="m118.096495 2.33333333h-15.297986v42.69999997h15.297986c13.663088 0 24.289933-5.7166667 24.289933-21.1166667 0-15.28333327-10.626845-21.58333327-24.289933-21.58333327zm-.583892 34.18333327h-3.036242v-25.55h3.036242c7.707382 0 12.962416 3.6166667 12.962416 12.95 0 9.5666667-5.255034 12.6-12.962416 12.6z"/><path d="m146.356898 11.783333h10.393289v33.366667h-10.393289z"/><path d="m146.356898 0h10.393289v8.4h-10.393289z"/><path d="m183.492469 14.8166666c-2.102014-2.3333333-4.904698-3.85-8.991947-3.85-8.174496 0-14.24698 5.95-14.24698 17.7333334 0 11.4333333 5.60537 17.15 13.896645 17.15 4.554362 0 7.590604-1.75 9.926174-4.7833334l.934228 3.9666667h8.524833v-33.25h-9.575839zm-.350336 21c-1.401342 1.1666667-3.269799 1.9833334-5.605369 1.9833334-3.853691 0-6.656376-2.8-6.656376-9.1 0-6.5333334 2.569128-10.0333334 6.889933-10.0333334 2.33557 0 3.97047.7 5.488591 1.8666667v15.2833333z"/><path d="m208.599851 17.5-.700671-5.7166667h-9.108725v33.3666667h10.393289v-21.2333334c1.985235-2.1 4.320805-2.6833333 8.174496-2.6833333 1.051007 0 2.102014.1166667 2.919463.35l.350336-.2333333v-9.8c-.700671-.1166667-1.634899-.2333334-2.685906-.2333334-4.437584-.1166666-7.590604 3.0333334-9.342282 6.1833334z"/><path d="m223.664281 0h10.393289v8.4h-10.393289z"/><path d="m223.664281 11.783333h10.393289v33.366667h-10.393289z"/><path d="m255.311261 10.9666666c-10.159732 0-17.867115 6.5333334-17.867115 17.3833334s7.590604 17.5 17.867115 17.5c10.159731 0 17.867114-6.65 17.867114-17.5s-7.707383-17.3833334-17.867114-17.3833334zm0 27.3c-4.320806 0-7.240269-3.2666666-7.240269-9.9166666s2.919463-9.9166667 7.240269-9.9166667c4.320805 0 7.240268 3.2666667 7.240268 9.9166667 0 6.7666666-2.802685 9.9166666-7.240268 9.9166666z"/></g></g></svg>