<svg height="30" viewBox="0 0 30 30" width="30" xmlns="http://www.w3.org/2000/svg"><g fill="none" fill-rule="evenodd"><path d="m30 15c0 8.284-6.716 15-15 15s-15-6.716-15-15 6.716-15 15-15 15 6.716 15 15" fill="#004a7f"/><path d="m4.5 10.503c2.485 0 4.5 2.016 4.5 4.5 0 2.485-2.015 4.5-4.5 4.5s-4.5-2.015-4.5-4.5c0-2.484 2.015-4.5 4.5-4.5zm5.9902-2.0176c1.76 1.63 2.86 3.95 2.86 6.521 0 2.429-.98 4.629-2.57 6.24l-1.37-1.471c1.2-1.229 1.94-2.91 1.94-4.769 0-2.031-.881-3.851-2.29-5.09zm3.25-3.25c2.59 2.46 4.21 5.931 4.21 9.771 0 3.759-1.56 7.169-4.06 9.609l-1.36-1.47c2.11-2.07 3.42-4.96 3.42-8.139 0-3.291-1.4-6.26-3.63-8.351zm3.0596-3.0596c3.38 3.24 5.49 7.79 5.49 12.83 0 5.02-2.09 9.56-5.45 12.79l-1.36-1.46c2.97-2.87 4.81-6.89 4.81-11.33 0-4.49-1.88-8.54-4.9-11.42z" fill="#fff"/></g></svg>