<svg width="33" height="32" viewBox="0 0 33 32" fill="none" xmlns="http://www.w3.org/2000/svg">
<g filter="url(#filter0_d_1327_2738)">
<path d="M18.0035 12.5625C18.0035 12.4219 17.9098 12.2812 17.816 12.1875C17.7223 12.0938 17.5816 12 17.441 12H13.5035V8.0625C13.5035 7.92188 13.4098 7.78125 13.316 7.6875C13.2223 7.59375 13.0816 7.5 12.941 7.5H12.566C12.3785 7.5 12.2379 7.59375 12.1441 7.6875C12.0504 7.78125 12.0035 7.92188 12.0035 8.0625V12H8.06602C7.87852 12 7.73789 12.0938 7.64414 12.1875C7.55039 12.2812 7.50352 12.4219 7.50352 12.5625V12.9375C7.50352 13.125 7.55039 13.2656 7.64414 13.3594C7.73789 13.4531 7.87852 13.5 8.06602 13.5H12.0035V17.4375C12.0035 17.625 12.0504 17.7656 12.1441 17.8594C12.2379 17.9531 12.3785 18 12.566 18H12.941C13.0816 18 13.2223 17.9531 13.316 17.8594C13.4098 17.7656 13.5035 17.625 13.5035 17.4375V13.5H17.441C17.5816 13.5 17.7223 13.4531 17.816 13.3594C17.9098 13.2656 18.0035 13.125 18.0035 12.9375V12.5625ZM26.816 26.2969C26.9098 26.2031 27.0035 26.0625 27.0035 25.9219C27.0035 25.7812 26.9098 25.6406 26.816 25.5L20.7691 19.4531C20.6754 19.3594 20.5348 19.3125 20.3941 19.3125H19.9723C20.7691 18.4219 21.3785 17.4375 21.8473 16.3125C22.2691 15.1875 22.5035 14.0156 22.5035 12.75C22.5035 11.0156 22.0348 9.42188 21.191 7.92188C20.3473 6.42188 19.1754 5.25 17.7223 4.35938C16.2223 3.51562 14.6285 3.04688 12.8473 3C11.066 3 9.37852 3.42188 7.87852 4.3125C6.37852 5.20312 5.15977 6.42188 4.26914 7.92188C3.37852 9.42188 2.95664 11.0625 3.00352 12.8438C3.00352 14.625 3.47227 16.2656 4.36289 17.7188C5.20664 19.2188 6.37852 20.3906 7.87852 21.2344C9.37852 22.0781 10.9723 22.5 12.7535 22.5C13.9723 22.5 15.1441 22.3125 16.2691 21.8438C17.3941 21.4219 18.3785 20.8125 19.316 19.9688V20.3906C19.316 20.5781 19.3629 20.6719 19.4566 20.7656L25.5035 26.8125C25.5973 26.9531 25.7379 27 25.8785 27C26.0191 27 26.1598 26.9531 26.3004 26.8125L26.816 26.2969ZM21.0035 12.75C21.0035 14.25 20.6285 15.6562 19.8785 16.9219C19.1285 18.1875 18.1441 19.1719 16.8785 19.9219C15.6129 20.6719 14.2535 21 12.7535 21C11.2535 21 9.84727 20.6719 8.58164 19.9219C7.31602 19.1719 6.33164 18.1875 5.58164 16.9219C4.83164 15.6562 4.50352 14.25 4.50352 12.75C4.50352 11.25 4.83164 9.89062 5.58164 8.625C6.33164 7.35938 7.31602 6.375 8.58164 5.625C9.84727 4.875 11.2535 4.5 12.7535 4.5C14.2535 4.5 15.6129 4.875 16.8785 5.625C18.1441 6.375 19.1285 7.35938 19.8785 8.625C20.6285 9.89062 21.0035 11.25 21.0035 12.75Z" fill="white"/>
</g>
<defs>
<filter id="filter0_d_1327_2738" x="0" y="0" width="32.0034" height="32" filterUnits="userSpaceOnUse" color-interpolation-filters="sRGB">
<feFlood flood-opacity="0" result="BackgroundImageFix"/>
<feColorMatrix in="SourceAlpha" type="matrix" values="0 0 0 0 0 0 0 0 0 0 0 0 0 0 0 0 0 0 127 0" result="hardAlpha"/>
<feOffset dx="1" dy="1"/>
<feGaussianBlur stdDeviation="2"/>
<feComposite in2="hardAlpha" operator="out"/>
<feColorMatrix type="matrix" values="0 0 0 0 0 0 0 0 0 0 0 0 0 0 0 0 0 0 0.12 0"/>
<feBlend mode="normal" in2="BackgroundImageFix" result="effect1_dropShadow_1327_2738"/>
<feBlend mode="normal" in="SourceGraphic" in2="effect1_dropShadow_1327_2738" result="shape"/>
</filter>
</defs>
</svg>
